<?xml version="1.0" standalone="no"?>
<!DOCTYPE svg PUBLIC "-//W3C//DTD SVG 20010904//EN"
 "http://www.w3.org/TR/2001/REC-SVG-20010904/DTD/svg10.dtd">
<svg version="1.0" xmlns="http://www.w3.org/2000/svg"
 width="1638.000000pt" height="1638.000000pt" viewBox="0 0 1638.000000 1638.000000"
 preserveAspectRatio="xMidYMid meet">

<g transform="translate(0.000000,1638.000000) scale(0.100000,-0.100000)"
fill="#000000" stroke="none">
<path d="M0 8190 l0 -8190 8190 0 8190 0 0 8190 0 8190 -8190 0 -8190 0 0
-8190z m10298 6284 c-230 -276 -343 -411 -1065 -1274 -204 -245 -494 -591
-643 -770 -150 -179 -472 -563 -716 -855 -243 -291 -574 -688 -736 -880 -161
-193 -432 -517 -602 -720 -170 -204 -331 -395 -358 -426 -26 -30 -48 -58 -48
-62 0 -5 870 -735 1080 -907 71 -58 288 -239 330 -276 14 -12 81 -69 150 -126
432 -358 1352 -1128 1379 -1153 14 -14 21 -6 -419 -538 -107 -130 -199 -236
-203 -236 -4 -1 -141 110 -304 247 -163 136 -326 272 -363 302 -61 50 -523
436 -1330 1111 -293 245 -518 432 -1347 1124 -211 175 -383 321 -383 325 0 4
9 18 21 31 24 29 27 32 159 189 119 142 365 436 711 850 131 157 237 290 236
295 -1 6 -55 55 -122 110 -66 55 -406 339 -755 629 -349 291 -638 532 -643
536 -4 3 57 35 135 70 293 129 1808 800 2608 1155 835 370 1716 761 2380 1055
338 150 719 319 845 375 127 56 231 101 233 100 2 -2 -102 -128 -230 -281z
m-1122 -2897 c532 -443 1024 -857 1024 -863 0 -4 -588 -712 -625 -752 -9 -10
-48 18 -186 134 -96 80 -200 167 -231 193 -165 135 -733 614 -736 620 -3 8 43
67 223 282 66 79 183 219 259 312 77 92 144 167 150 167 6 0 61 -42 122 -93z
m-880 -1585 c203 -169 522 -435 709 -592 187 -156 491 -410 675 -564 184 -154
523 -438 753 -631 231 -192 436 -363 457 -380 86 -68 765 -638 768 -644 2 -6
-145 -186 -318 -391 -92 -109 -686 -819 -719 -859 -20 -24 -51 -61 -68 -81
l-33 -37 765 -638 c421 -350 765 -640 765 -644 0 -3 -112 -55 -248 -115 -228
-100 -848 -375 -2057 -911 -264 -117 -640 -284 -835 -370 -195 -87 -652 -289
-1015 -450 -1134 -503 -1533 -680 -1760 -780 -121 -53 -233 -103 -249 -111
-28 -13 -51 -10 -30 4 5 4 55 61 110 127 55 66 192 230 305 365 539 643 969
1159 1019 1219 30 37 100 121 155 187 56 65 238 283 406 484 168 201 399 478
514 615 115 138 287 342 381 455 94 113 361 432 594 710 973 1163 914 1090
899 1104 -8 8 -383 321 -834 697 -451 376 -863 719 -916 764 -52 44 -117 98
-144 120 -139 115 -199 165 -389 325 -115 96 -225 189 -246 205 -43 34 -357
296 -404 336 l-30 27 120 143 c168 201 454 548 484 586 14 18 30 32 36 32 7 1
178 -137 380 -307z m-726 -4032 c206 -171 375 -315 375 -320 0 -5 -141 -179
-314 -387 -173 -208 -316 -380 -317 -381 -3 -4 -1085 897 -1126 937 l-26 26
121 146 c67 80 211 252 320 382 l197 237 198 -164 c108 -91 366 -305 572 -476z"/>
</g>
</svg>
